<svg width="8" height="12" viewBox="0 0 8 12" fill="none" xmlns="http://www.w3.org/2000/svg">
<path d="M7.33504 5.53176L1.99489 0.191706C1.87138 0.068097 1.7065 0 1.5307 0C1.3549 0 1.19002 0.068097 1.06651 0.191706L0.673244 0.584873C0.417344 0.841066 0.417344 1.25745 0.673244 1.51326L5.1575 5.99751L0.668268 10.4867C0.544757 10.6104 0.476562 10.7751 0.476562 10.9508C0.476562 11.1267 0.544757 11.2915 0.668268 11.4152L1.06153 11.8083C1.18514 11.9319 1.34992 12 1.52572 12C1.70153 12 1.8664 11.9319 1.98992 11.8083L7.33504 6.46336C7.45885 6.33936 7.52685 6.1738 7.52646 5.9978C7.52685 5.82112 7.45885 5.65566 7.33504 5.53176Z" fill="#394756"/>
</svg>
