<svg width="30" height="30" viewBox="0 0 30 30" fill="none" xmlns="http://www.w3.org/2000/svg">
<circle opacity="0.8" cx="15" cy="15" r="14.5" transform="rotate(180 15 15)" fill="white" stroke="#C4C4C4"/>
<path d="M18.7154 14.6098L14.2653 10.1598C14.1623 10.0567 14.025 10 13.8784 10C13.7319 10 13.5945 10.0567 13.4916 10.1598L13.1639 10.4874C12.9507 10.7009 12.9507 11.0479 13.1639 11.261L16.9008 14.9979L13.1598 18.739C13.0568 18.842 13 18.9793 13 19.1257C13 19.2723 13.0568 19.4096 13.1598 19.5127L13.4875 19.8402C13.5905 19.9433 13.7278 20 13.8743 20C14.0208 20 14.1582 19.9433 14.2611 19.8402L18.7154 15.3861C18.8186 15.2828 18.8752 15.1448 18.8749 14.9982C18.8752 14.8509 18.8186 14.7131 18.7154 14.6098Z" fill="#394756"/>
</svg>
