<svg width="139" height="22" viewBox="0 0 139 22" fill="none" xmlns="http://www.w3.org/2000/svg">
<path d="M0.431108 21H4.89986V18.701H5.03835C5.6108 20.0121 6.88494 21.2031 9.02699 21.2031C12.1662 21.2031 14.696 18.7472 14.696 13.9183C14.696 8.91406 12.0185 6.63352 9.05469 6.63352C6.81108 6.63352 5.5831 7.9446 5.03835 9.24645H4.94602V2.09091H0.431108V21ZM4.85369 13.9091C4.85369 11.5916 5.81392 10.1605 7.46662 10.1605C9.13778 10.1605 10.0611 11.6286 10.0611 13.9091C10.0611 16.1989 9.13778 17.6854 7.46662 17.6854C5.81392 17.6854 4.85369 16.2081 4.85369 13.9091ZM17.062 21H21.5769V6.81818H17.062V21ZM19.324 5.16548C20.6074 5.16548 21.6415 4.19602 21.6415 3.00497C21.6415 1.81392 20.6074 0.853692 19.324 0.853692C18.0499 0.853692 17.0066 1.81392 17.0066 3.00497C17.0066 4.19602 18.0499 5.16548 19.324 5.16548ZM24.4506 21H28.9656V12.6072C28.9656 11.2038 29.7873 10.3082 30.9691 10.3082C32.1417 10.3082 32.9173 11.13 32.9173 12.4411V21H37.2567V12.5334C37.2567 11.1761 38.0046 10.3082 39.2511 10.3082C40.396 10.3082 41.2085 11.0746 41.2085 12.4872V21H45.7234V11.4531C45.7234 8.45241 43.8768 6.63352 41.1992 6.63352C39.1033 6.63352 37.4506 7.73224 36.9244 9.42188H36.7766C36.3981 7.72301 34.8746 6.63352 32.908 6.63352C30.9691 6.63352 29.4918 7.69531 28.9009 9.42188H28.744V6.81818H24.4506V21ZM48.521 21H52.9897V18.701H53.1282C53.7006 20.0121 54.9748 21.2031 57.1168 21.2031C60.256 21.2031 62.7859 18.7472 62.7859 13.9183C62.7859 8.91406 60.1083 6.63352 57.1445 6.63352C54.9009 6.63352 53.6729 7.9446 53.1282 9.24645H53.0359V2.09091H48.521V21ZM52.9435 13.9091C52.9435 11.5916 53.9038 10.1605 55.5565 10.1605C57.2276 10.1605 58.1509 11.6286 58.1509 13.9091C58.1509 16.1989 57.2276 17.6854 55.5565 17.6854C53.9038 17.6854 52.9435 16.2081 52.9435 13.9091ZM69.1497 21.2401C71.1255 21.2401 72.492 20.4737 73.2676 19.0241H73.3784V21H77.6255V11.3608C77.6255 8.36008 74.9572 6.63352 71.3471 6.63352C67.5339 6.63352 65.3734 8.55398 65.0133 11.1392L69.1774 11.2869C69.3713 10.3821 70.1191 9.82812 71.3102 9.82812C72.4181 9.82812 73.1199 10.3636 73.1199 11.3146V11.3608C73.1199 12.2287 72.1781 12.4134 69.7591 12.6257C66.8876 12.8658 64.487 13.9276 64.487 17.0668C64.487 19.8736 66.4352 21.2401 69.1497 21.2401ZM70.5439 18.2855C69.5005 18.2855 68.7619 17.7869 68.7619 16.8452C68.7619 15.9311 69.4821 15.3771 70.7654 15.1832C71.6056 15.0632 72.6397 14.8786 73.1475 14.6108V15.9588C73.1475 17.3438 71.9842 18.2855 70.5439 18.2855ZM82.9252 21.2678C84.1902 21.2678 85.3074 20.1967 85.3258 18.8672C85.3074 17.5561 84.1902 16.4943 82.9252 16.4943C81.5957 16.4943 80.5062 17.5561 80.5247 18.8672C80.5062 20.1967 81.5957 21.2678 82.9252 21.2678ZM88.3081 21H92.823V13.2997C92.823 11.6101 94.0233 10.4744 95.639 10.4744C96.1745 10.4744 96.9778 10.5668 97.4118 10.7145V6.79048C97.0332 6.68892 96.5623 6.62429 96.1468 6.62429C94.5957 6.62429 93.3585 7.52912 92.8414 9.40341H92.6937V6.81818H88.3081V21ZM105.144 21.2678C108.865 21.2678 111.312 19.4673 111.829 16.679L107.683 16.5589C107.333 17.5007 106.409 18.0085 105.227 18.0085C103.492 18.0085 102.421 16.8544 102.421 15.1186V14.9986H111.875V13.8722C111.875 9.20028 109.031 6.63352 105.006 6.63352C100.722 6.63352 97.9703 9.5696 97.9703 13.9645C97.9703 18.5071 100.685 21.2678 105.144 21.2678ZM102.421 12.3764C102.485 10.9638 103.602 9.89276 105.098 9.89276C106.585 9.89276 107.656 10.9268 107.674 12.3764H102.421ZM118.696 12.9119C118.705 11.2962 119.647 10.3359 121.078 10.3359C122.509 10.3359 123.359 11.2777 123.349 12.8473V21H127.864V11.9609C127.874 8.76633 125.925 6.63352 122.943 6.63352C120.847 6.63352 119.259 7.69531 118.631 9.42188H118.474V6.81818H114.181V21H118.696V12.9119ZM138.665 6.81818H136.107V3.42045H131.592V6.81818H129.718V10.142H131.592V17.0391C131.564 19.9105 133.43 21.3509 136.615 21.2031C137.704 21.1477 138.489 20.9261 138.923 20.7969L138.24 17.5376C138.046 17.5838 137.594 17.6761 137.252 17.6761C136.523 17.6761 136.107 17.3807 136.107 16.5405V10.142H138.665V6.81818Z" fill="url(#paint0_linear)"/>
<defs>
<linearGradient id="paint0_linear" x1="-55.3667" y1="-7.46876" x2="196.938" y2="60.591" gradientUnits="userSpaceOnUse">
<stop stop-color="#06BEE1"/>
<stop offset="0.520002" stop-color="#1768AC"/>
<stop offset="1" stop-color="#03256C"/>
</linearGradient>
</defs>
</svg>
