<svg xmlns="http://www.w3.org/2000/svg" width="0" height="0" aria-hidden="true" display="none">


	 <symbol id="telegram" viewBox="0 0 26 22">
        <path d="M0.446303 10.5489L6.2685 12.722L8.52205 19.9694C8.66624 20.4336 9.23384 20.6052 9.61058 20.2971L12.856 17.6514C13.1962 17.3742 13.6807 17.3604 14.0362 17.6185L19.8898 21.8683C20.2928 22.1612 20.8637 21.9404 20.9648 21.4534L25.2528 0.82706C25.3632 0.295085 24.8405 -0.148705 24.3339 0.047206L0.439481 9.26505C-0.150184 9.49247 -0.145047 10.3273 0.446303 10.5489ZM8.15886 11.5652L19.5376 4.55695C19.7421 4.43137 19.9525 4.70789 19.7769 4.87078L10.3861 13.6C10.0561 13.9073 9.84313 14.3185 9.78282 14.7648L9.46293 17.1354C9.42057 17.452 8.97594 17.4834 8.8886 17.1771L7.65831 12.8541C7.5174 12.3611 7.72274 11.8344 8.15886 11.5652Z"/>
    </symbol>

    <symbol id="viber" viewBox="0 0 22 24">
        <path d="M18.9671 2.13718C16.3511 -0.338741 6.21383 -1.1329 2.52331 2.32404C1.07513 3.81893 0.421112 5.92113 0.280966 9.28464V9.56493C0.23425 12.2744 0.140819 17.1328 4.29849 18.9547C4.67222 19.1416 4.90579 19.5153 4.90579 19.889V23.1124C4.90579 23.7197 5.18609 23.9066 5.37295 23.9533C5.46638 24 5.51309 24 5.60653 24C5.8401 24 6.07368 23.8599 6.21383 23.673C6.82113 23.0657 8.31602 21.2438 9.11018 20.2628C9.29705 20.0292 9.62405 19.889 9.95106 19.889C12.8941 19.9825 15.2766 19.4219 15.7905 19.2817C15.8372 19.2817 15.9306 19.235 16.0241 19.1883C17.1452 18.908 20.5087 18.0671 21.0693 13.0686C21.0693 13.0219 21.0693 12.9752 21.0693 12.9284C21.4431 9.89194 21.5832 4.42623 18.9671 2.13718ZM14.0153 16.946C13.0343 16.6657 10.6051 15.3576 9.06347 14.0963C5.8401 11.4335 4.81236 7.92989 4.25178 6.80872C4.20506 6.66857 4.20506 6.52843 4.20506 6.38828C4.20506 5.45397 5.09266 4.65981 5.88682 4.19266C6.35397 3.95908 6.77441 4.00579 7.0547 4.37952C7.335 4.75324 7.84887 5.2204 8.64303 6.66857C8.92332 7.22916 8.73646 7.78974 8.45617 8.02332L7.84887 8.49048C7.56857 8.72405 7.61529 9.19121 7.61529 9.19121C7.61529 9.19121 8.50288 12.6014 11.7262 13.4423C11.7262 13.4423 12.1934 13.489 12.427 13.162L12.8941 12.5547C13.1277 12.2744 13.6883 12.0408 14.2022 12.3679C14.9496 12.7883 15.8372 13.4423 16.3511 14.0963C16.5379 14.2832 16.6781 14.5168 16.6781 14.7503C16.6781 14.9372 16.6314 15.0774 16.5379 15.2642C16.0708 16.1051 15.2766 16.9927 14.4357 16.9927C14.2956 16.9927 14.1555 16.9927 14.0153 16.946ZM17.1452 10.2657C17.192 10.6861 16.5379 10.6861 16.5379 10.2657C16.4912 6.1547 13.8752 3.95908 10.6518 3.91236C10.2314 3.91236 10.2314 3.25835 10.6518 3.25835C12.4737 3.25835 14.062 3.91236 15.2299 5.12696C16.3978 6.29485 17.1452 8.07004 17.1452 10.2657ZM11.2124 5.59412C10.7919 5.5474 10.8387 4.89339 11.2591 4.9401C14.062 5.17368 15.5569 7.18244 15.5102 9.61165C15.5102 10.0788 14.9029 10.0321 14.9029 9.61165C14.9496 7.46274 13.6416 5.78098 11.2124 5.59412ZM13.8752 9.05106C13.9219 9.51822 13.2679 9.51822 13.2679 9.09778C13.2211 7.97661 12.7073 7.41602 11.6795 7.36931C11.2591 7.32259 11.3058 6.66857 11.6795 6.71529C13.0343 6.80872 13.8284 7.60288 13.8752 9.05106Z"/>
    </symbol>

    <symbol id="facebook" viewBox="0 0 11 20">
        <path d="M0.596009 10.652H2.78827V19.6774C2.78827 19.8556 2.93265 20 3.11084 20H6.8279C7.00609 20 7.15047 19.8556 7.15047 19.6774V10.6945H9.67066C9.83453 10.6945 9.97239 10.5715 9.9911 10.4088L10.3739 7.08606C10.3844 6.99465 10.3554 6.9031 10.2943 6.83452C10.233 6.76587 10.1454 6.72658 10.0535 6.72658H7.1506V4.64374C7.1506 4.01587 7.48866 3.69748 8.15548 3.69748C8.25051 3.69748 10.0535 3.69748 10.0535 3.69748C10.2317 3.69748 10.3761 3.55303 10.3761 3.3749V0.324968C10.3761 0.146774 10.2317 0.0023871 10.0535 0.0023871H7.43776C7.4193 0.00148387 7.37834 0 7.31795 0C6.86409 0 5.28652 0.0890967 4.04036 1.23555C2.65963 2.506 2.85156 4.02716 2.89743 4.2909V6.72652H0.596009C0.417821 6.72652 0.273438 6.8709 0.273438 7.0491V10.3294C0.273438 10.5075 0.417821 10.652 0.596009 10.652Z"/>
    </symbol>

    <symbol id="youtube" viewBox="0 0 29 20">
        <path d="M27.6856 1.71686C26.6598 0.497419 24.7659 0 21.1489 0H8.01916C4.31937 0 2.39334 0.529505 1.37138 1.82778C0.375 3.09361 0.375 4.9587 0.375 7.54004V12.4601C0.375 17.4609 1.5572 20 8.01916 20H21.149C24.2856 20 26.0237 19.5611 27.1482 18.4849C28.3013 17.3814 28.7933 15.5795 28.7933 12.4601V7.54004C28.7933 4.8178 28.7162 2.9417 27.6856 1.71686ZM18.6197 10.6793L12.6575 13.7954C12.5242 13.865 12.3784 13.8996 12.2329 13.8996C12.068 13.8996 11.9036 13.8552 11.7579 13.767C11.4836 13.6008 11.3161 13.3035 11.3161 12.9829V6.77072C11.3161 6.45059 11.4832 6.15357 11.7569 5.98728C12.0307 5.82098 12.3713 5.80961 12.6554 5.95721L18.6175 9.0532C18.9209 9.21069 19.1114 9.52385 19.1118 9.86551C19.1122 10.2075 18.9225 10.5211 18.6197 10.6793Z"/>
    </symbol>

    <symbol id="instagram" viewBox="0 0 21 20">
        <path d="M20.8242 10C20.8242 12.7162 20.8125 13.0568 20.7655 14.1213C20.7185 15.1859 20.5463 15.91 20.2997 16.5479C19.7792 17.8904 18.7185 18.955 17.3722 19.4755C16.7381 19.7221 16.0101 19.8943 14.9455 19.9413C13.877 19.9883 13.5405 20 10.8242 20C8.10797 20 7.76746 19.9883 6.70288 19.9413C5.6383 19.8943 4.91423 19.7221 4.27627 19.4755C3.6109 19.225 3.00816 18.8297 2.50719 18.3249C1.99838 17.8239 1.60308 17.225 1.35259 16.5519C1.10601 15.9178 0.9338 15.1859 0.886833 14.1252C0.839867 13.0568 0.828125 12.7202 0.828125 10.0039C0.828125 7.28767 0.839867 6.94716 0.890747 5.87867C0.937714 4.81409 1.10993 4.09002 1.3565 3.45205C1.60699 2.78669 2.00229 2.18004 2.5111 1.68297C3.00816 1.16634 3.6109 0.778865 4.28018 0.524462C4.91423 0.277886 5.64222 0.105675 6.70679 0.0587084C7.77529 0.0117417 8.1158 0 10.832 0C13.5483 0 13.8888 0.0117417 14.9573 0.0626223C16.0219 0.109589 16.7459 0.2818 17.3839 0.528376C18.0493 0.778865 18.652 1.17417 19.153 1.67906C19.6657 2.18004 20.0571 2.78278 20.3076 3.45205C20.5542 4.08611 20.7264 4.81409 20.7733 5.87867C20.8203 6.94716 20.8242 7.28767 20.8242 10Z" fill="#394756"/>
        <path d="M10.8303 4.86523C7.99278 4.86523 5.69141 7.1666 5.69141 10.0042C5.69141 12.8418 7.99669 15.1392 10.8303 15.1392C13.6679 15.1392 15.9693 12.8378 15.9693 10.0003C15.9693 7.16269 13.6679 4.86523 10.8303 4.86523ZM10.8303 13.3349C8.99082 13.3349 7.49571 11.8437 7.49571 10.0003C7.49571 8.15682 8.9869 6.66563 10.8303 6.66563C12.6699 6.66563 14.165 8.15682 14.165 10.0003C14.165 11.8437 12.6738 13.3349 10.8303 13.3349Z" fill="white"/>
        <path d="M17.3719 4.66154C17.3719 5.32298 16.8357 5.85918 16.1742 5.85918C15.5128 5.85918 14.9766 5.32298 14.9766 4.66154C14.9766 4.00009 15.5128 3.46389 16.1742 3.46389C16.8317 3.45997 17.3719 4.00009 17.3719 4.66154Z" fill="white"/>
    </symbol>

    <symbol id="arrow" viewBox="0 0 16 10">
        <path d="M7.37568 9.44444L0.255608 2.32424C0.0907959 2.15956 -7.16832e-08 1.93973 -6.14371e-08 1.70532C-5.11909e-08 1.47092 0.090796 1.25108 0.255608 1.0864L0.779831 0.562047C1.12142 0.220846 1.6766 0.220846 2.01767 0.562047L7.99668 6.54105L13.9823 0.555413C14.1471 0.390731 14.3668 0.299805 14.6011 0.299805C14.8357 0.299805 15.0554 0.390731 15.2203 0.555413L15.7444 1.07977C15.9092 1.24458 16 1.46428 16 1.69869C16 1.93309 15.9092 2.15293 15.7444 2.31761L8.61782 9.44444C8.45248 9.60952 8.23174 9.70018 7.99707 9.69966C7.7615 9.70018 7.54088 9.60952 7.37568 9.44444Z"/>
    </symbol>

    <symbol id="polyhedron" viewBox="0 0 86 90">
        <path d="M17.1677 9.44489L43 1.05146L68.8323 9.44489L84.7975 31.4191V58.5809L68.8323 80.5551L43 88.9485L17.1677 80.5551L1.20246 58.5808V31.4192L17.1677 9.44489Z" stroke="#394756" stroke-width="2"/>
    </symbol>

    <symbol id="message-main" viewBox="0 0 22 21">
        <path d="M8.70449 16.3952L8.55523 16.1815H8.2946H4C2.067 16.1815 0.5 14.6145 0.5 12.6815V4.39063C0.5 2.45763 2.067 0.890625 4 0.890625H18C19.933 0.890625 21.5 2.45763 21.5 4.39062V12.6815C21.5 14.6145 19.933 16.1815 18 16.1815H13.4768H13.2162L13.0669 16.3952L10.8857 19.5175L8.70449 16.3952Z" stroke="#394756"/>
    </symbol>

    <symbol id="bread" viewBox="0 0 3 5">
        <path d="M2.88895 2.3049L0.663887 0.0798774C0.612424 0.0283738 0.543725 0 0.470474 0C0.397223 0 0.328524 0.0283738 0.277061 0.0798774L0.113201 0.243697C0.00657544 0.350444 0.00657544 0.523939 0.113201 0.630523L1.98164 2.49896L0.111127 4.36948C0.0596644 4.42098 0.03125 4.48964 0.03125 4.56285C0.03125 4.63614 0.0596644 4.7048 0.111127 4.75634L0.274988 4.92012C0.326491 4.97163 0.39515 5 0.468401 5C0.541652 5 0.610351 4.97163 0.661814 4.92012L2.88895 2.69307C2.94054 2.6414 2.96887 2.57242 2.96871 2.49909C2.96887 2.42547 2.94054 2.35653 2.88895 2.3049Z" fill="#6D6D6D"/>
    </symbol>

    <symbol id="filter" viewBox="0 0 18 18">
        <path d="M1 2.60294C0.585786 2.60294 0.25 2.93873 0.25 3.35294C0.25 3.76715 0.585786 4.10294 1 4.10294V2.60294ZM10 4.10294C10.4142 4.10294 10.75 3.76715 10.75 3.35294C10.75 2.93873 10.4142 2.60294 10 2.60294V4.10294ZM8 8.25C7.58579 8.25 7.25 8.58579 7.25 9C7.25 9.41421 7.58579 9.75 8 9.75V8.25ZM17 9.75C17.4142 9.75 17.75 9.41421 17.75 9C17.75 8.58579 17.4142 8.25 17 8.25V9.75ZM1 13.8971C0.585786 13.8971 0.25 14.2328 0.25 14.6471C0.25 15.0613 0.585786 15.3971 1 15.3971V13.8971ZM6 15.3971C6.41421 15.3971 6.75 15.0613 6.75 14.6471C6.75 14.2328 6.41421 13.8971 6 13.8971V15.3971ZM14.0357 1C14.0357 0.585786 13.6999 0.25 13.2857 0.25C12.8715 0.25 12.5357 0.585786 12.5357 1H14.0357ZM12.5357 5.70588C12.5357 6.1201 12.8715 6.45588 13.2857 6.45588C13.6999 6.45588 14.0357 6.1201 14.0357 5.70588H12.5357ZM5.46429 6.64706C5.46429 6.23285 5.1285 5.89706 4.71429 5.89706C4.30007 5.89706 3.96429 6.23285 3.96429 6.64706H5.46429ZM3.96429 11.3529C3.96429 11.7672 4.30007 12.1029 4.71429 12.1029C5.1285 12.1029 5.46429 11.7672 5.46429 11.3529H3.96429ZM10.2206 12.2941C10.2206 11.8799 9.8848 11.5441 9.47059 11.5441C9.05638 11.5441 8.72059 11.8799 8.72059 12.2941H10.2206ZM8.72059 17C8.72059 17.4142 9.05638 17.75 9.47059 17.75C9.8848 17.75 10.2206 17.4142 10.2206 17H8.72059ZM13.2857 2.60294C12.8715 2.60294 12.5357 2.93873 12.5357 3.35294C12.5357 3.76715 12.8715 4.10294 13.2857 4.10294V2.60294ZM17 4.10294C17.4142 4.10294 17.75 3.76715 17.75 3.35294C17.75 2.93873 17.4142 2.60294 17 2.60294V4.10294ZM1 8.25C0.585786 8.25 0.25 8.58579 0.25 9C0.25 9.41421 0.585786 9.75 1 9.75V8.25ZM4.71429 9.75C5.1285 9.75 5.46429 9.41421 5.46429 9C5.46429 8.58579 5.1285 8.25 4.71429 8.25V9.75ZM9.47059 13.8971C9.05638 13.8971 8.72059 14.2328 8.72059 14.6471C8.72059 15.0613 9.05638 15.3971 9.47059 15.3971V13.8971ZM17 15.3971C17.4142 15.3971 17.75 15.0613 17.75 14.6471C17.75 14.2328 17.4142 13.8971 17 13.8971V15.3971ZM1 4.10294H10V2.60294H1V4.10294ZM8 9.75H17V8.25H8V9.75ZM1 15.3971H6V13.8971H1V15.3971ZM12.5357 1V5.70588H14.0357V1H12.5357ZM3.96429 6.64706V11.3529H5.46429V6.64706H3.96429ZM8.72059 12.2941V17H10.2206V12.2941H8.72059ZM13.2857 4.10294H17V2.60294H13.2857V4.10294ZM1 9.75H4.71429V8.25H1V9.75ZM9.47059 15.3971H17V13.8971H9.47059V15.3971Z"/>
    </symbol>

    <symbol id="hearth" viewBox="0 0 20 18">
        <path d="M18.7992 5.99961C18.7992 7.39961 18.2992 8.69961 17.0992 10.0996C15.9992 11.4996 14.2992 12.8996 12.2992 14.5996C11.5992 15.1996 10.7992 15.8996 9.99922 16.5996C9.19922 15.8996 8.39922 15.1996 7.69922 14.5996C5.69922 12.8996 3.99922 11.4996 2.89922 10.0996C1.69922 8.69961 1.19922 7.39961 1.19922 5.99961C1.19922 4.69961 1.69922 3.39961 2.49922 2.49961C3.29922 1.59961 4.39922 1.09961 5.59922 1.09961C6.49922 1.19961 7.29922 1.49961 7.99922 1.99961C8.59922 2.49961 9.09922 3.09961 9.29922 3.59961C9.49922 3.79961 9.69922 3.89961 9.99922 3.89961C10.2992 3.89961 10.4992 3.79961 10.5992 3.49961C10.8992 3.09961 11.2992 2.49961 11.9992 1.99961C12.6992 1.49961 13.4992 1.19961 14.3992 1.19961C15.5992 1.19961 16.6992 1.69961 17.4992 2.59961C18.3992 3.39961 18.7992 4.69961 18.7992 5.99961Z"/>
    </symbol>

    <symbol id="hearth-2" viewBox="0 0 22 19">
        <path d="M18.6837 2.91795C18.2155 2.46285 17.6596 2.10183 17.0478 1.85551C16.4359 1.6092 15.7801 1.48242 15.1179 1.48242C14.4556 1.48242 13.7998 1.6092 13.1879 1.85551C12.5761 2.10183 12.0202 2.46285 11.552 2.91795L10.5804 3.86202L9.60868 2.91795C8.66297 1.9991 7.3803 1.4829 6.04285 1.4829C4.7054 1.4829 3.42273 1.9991 2.47702 2.91795C1.5313 3.83681 1 5.08303 1 6.38249C1 7.68194 1.5313 8.92817 2.47702 9.84702L3.44868 10.7911L10.5804 17.7201L17.712 10.7911L18.6837 9.84702C19.1521 9.39213 19.5237 8.85202 19.7772 8.25757C20.0307 7.66311 20.1612 7.02595 20.1612 6.38249C20.1612 5.73902 20.0307 5.10186 19.7772 4.5074C19.5237 3.91295 19.1521 3.37285 18.6837 2.91795V2.91795Z"/>
    </symbol>

    <symbol id="hearth-3" viewBox="0 0 21 18">
        <path d="M2.54602 10.5308C3.69581 11.9915 5.44943 13.5344 7.46751 15.1492C8.17153 15.7527 8.97604 16.4566 9.78311 17.1628L10.1124 17.4509L10.4416 17.1628C11.2508 16.4548 12.0574 15.749 12.7628 15.1444C12.932 15.0005 13.0996 14.8584 13.2653 14.7179C15.0554 13.2001 16.6247 11.8695 17.6787 10.5308C18.9492 9.0457 19.5112 7.6218 19.5112 6.06742C19.5112 4.63362 18.9628 3.19996 18.0703 2.19591C17.1678 1.18056 15.9201 0.61236 14.5618 0.61236C13.5333 0.61236 12.6245 0.957104 11.8442 1.51448L11.8291 1.52531L11.8147 1.53724C11.1671 2.07695 10.624 2.72602 10.2904 3.28208L10.2805 3.29854L10.2728 3.31391C10.2727 3.31386 10.2669 3.32346 10.2506 3.34034C10.2315 3.36007 10.2058 3.38173 10.1763 3.40139C10.1466 3.42121 10.12 3.43435 10.1013 3.44142C10.0997 3.44205 10.0981 3.4426 10.0968 3.44307C10.0853 3.4421 10.0701 3.44005 10.0521 3.43615C10.0245 3.43018 9.99736 3.4214 9.97414 3.41107C9.95801 3.4039 9.94694 3.39741 9.94019 3.39291L9.93437 3.3832C9.61963 2.85864 9.17253 2.18133 8.38051 1.61561C7.60018 1.05823 6.69145 0.713483 5.66292 0.713483C4.31432 0.713483 3.07475 1.27359 2.17378 2.27534C1.13554 3.21347 0.713483 4.67916 0.713483 6.06742C0.713483 7.6218 1.27547 9.04569 2.54602 10.5308ZM9.65693 17.3431L9.64515 17.3313L9.63262 17.3203L9.63238 17.3201C8.82399 16.6128 8.01304 15.9032 7.30293 15.2945L7.30135 15.2932C7.19422 15.2021 7.08782 15.1118 6.9822 15.0221C5.07745 13.4044 3.42611 12.0019 2.31178 10.609L2.31179 10.609L2.30941 10.6061C1.05004 9.05607 0.5 7.64712 0.5 6.06742C0.5 4.56511 1.06606 3.06952 1.98795 2.05544C2.89774 1.05466 4.17557 0.5 5.66292 0.5C6.7514 0.5 7.65687 0.858433 8.49078 1.50704L8.51462 1.52557L8.54051 1.54111C8.95445 1.78947 9.30334 2.21608 9.72193 2.73931L10.1124 3.22736L10.5028 2.73931C10.9214 2.21608 11.2703 1.78947 11.6842 1.54111L11.7101 1.52557L11.7339 1.50704C12.5634 0.861925 13.5693 0.5 14.5618 0.5C15.953 0.5 17.3301 1.05807 18.2368 2.05544C19.1587 3.06952 19.7247 4.56511 19.7247 6.06742C19.7247 7.64291 19.178 9.05109 17.8163 10.7046L17.8162 10.7046L17.8118 10.7101C16.9522 11.7847 15.7861 12.7991 14.4176 13.9897C13.9098 14.4314 13.3743 14.8973 12.8161 15.3996C12.1075 16.007 11.2989 16.7145 10.4928 17.4199L10.491 17.4215L10.4887 17.4234C10.4879 17.4239 10.487 17.4243 10.486 17.4248C10.4689 17.4334 10.4395 17.4456 10.3985 17.4579C10.3152 17.4829 10.2119 17.5 10.1124 17.5C9.90823 17.5 9.74418 17.4303 9.65693 17.3431ZM10.4968 17.4189C10.497 17.4188 10.4965 17.4192 10.495 17.42C10.4961 17.4193 10.4967 17.4189 10.4968 17.4189Z" />
    </symbol>
    

    <symbol id="share" viewBox="0 0 17 20">
        <circle cx="14" cy="3" r="3" fill="#394756"/>
        <circle cx="14" cy="17" r="3" fill="#394756"/>
        <circle cx="3" cy="10" r="3" fill="#394756"/>
        <path d="M14 3L3 10L14 17" stroke="#394756" stroke-width="1.5"/>
    </symbol>

    <symbol id="circle-nine" viewBox="0 0 13 13">
        <circle cx="1.3" cy="1.3" r="1.3"/>
        <circle cx="6.49922" cy="1.3" r="1.3"/>
        <circle cx="11.6984" cy="1.3" r="1.3"/>
        <circle cx="1.3" cy="6.49922" r="1.3"/>
        <circle cx="6.49922" cy="6.49922" r="1.3"/>
        <circle cx="11.6984" cy="6.49922" r="1.3"/>
        <circle cx="1.3" cy="11.7004" r="1.3"/>
        <circle cx="6.49922" cy="11.7004" r="1.3"/>
        <circle cx="11.6984" cy="11.7004" r="1.3"/>
    </symbol>

    <symbol id="copy" viewBox="0 0 14 18">
        
        <path d="M2.06543 1H11.2709C11.8153 1 12.9041 1.32258 12.9041 2.6129C12.9041 3.90323 12.9041 10.6774 12.9041 13.9032" stroke="#394756" stroke-linecap="round"/>
        <rect x="0.5" y="3.05078" width="10.3548" height="13.4516" rx="2.5" stroke="#394756"/>
    </symbol>

</svg>   


