<svg xmlns="http://www.w3.org/2000/svg" width="0" height="0" aria-hidden="true" display="none">


	 <symbol id="telegram" viewBox="0 0 26 22">
        <path d="M0.446303 10.5489L6.2685 12.722L8.52205 19.9694C8.66624 20.4336 9.23384 20.6052 9.61058 20.2971L12.856 17.6514C13.1962 17.3742 13.6807 17.3604 14.0362 17.6185L19.8898 21.8683C20.2928 22.1612 20.8637 21.9404 20.9648 21.4534L25.2528 0.82706C25.3632 0.295085 24.8405 -0.148705 24.3339 0.047206L0.439481 9.26505C-0.150184 9.49247 -0.145047 10.3273 0.446303 10.5489ZM8.15886 11.5652L19.5376 4.55695C19.7421 4.43137 19.9525 4.70789 19.7769 4.87078L10.3861 13.6C10.0561 13.9073 9.84313 14.3185 9.78282 14.7648L9.46293 17.1354C9.42057 17.452 8.97594 17.4834 8.8886 17.1771L7.65831 12.8541C7.5174 12.3611 7.72274 11.8344 8.15886 11.5652Z"/>
    </symbol>

    <symbol id="viber" viewBox="0 0 22 24">
        <path d="M18.9671 2.13718C16.3511 -0.338741 6.21383 -1.1329 2.52331 2.32404C1.07513 3.81893 0.421112 5.92113 0.280966 9.28464V9.56493C0.23425 12.2744 0.140819 17.1328 4.29849 18.9547C4.67222 19.1416 4.90579 19.5153 4.90579 19.889V23.1124C4.90579 23.7197 5.18609 23.9066 5.37295 23.9533C5.46638 24 5.51309 24 5.60653 24C5.8401 24 6.07368 23.8599 6.21383 23.673C6.82113 23.0657 8.31602 21.2438 9.11018 20.2628C9.29705 20.0292 9.62405 19.889 9.95106 19.889C12.8941 19.9825 15.2766 19.4219 15.7905 19.2817C15.8372 19.2817 15.9306 19.235 16.0241 19.1883C17.1452 18.908 20.5087 18.0671 21.0693 13.0686C21.0693 13.0219 21.0693 12.9752 21.0693 12.9284C21.4431 9.89194 21.5832 4.42623 18.9671 2.13718ZM14.0153 16.946C13.0343 16.6657 10.6051 15.3576 9.06347 14.0963C5.8401 11.4335 4.81236 7.92989 4.25178 6.80872C4.20506 6.66857 4.20506 6.52843 4.20506 6.38828C4.20506 5.45397 5.09266 4.65981 5.88682 4.19266C6.35397 3.95908 6.77441 4.00579 7.0547 4.37952C7.335 4.75324 7.84887 5.2204 8.64303 6.66857C8.92332 7.22916 8.73646 7.78974 8.45617 8.02332L7.84887 8.49048C7.56857 8.72405 7.61529 9.19121 7.61529 9.19121C7.61529 9.19121 8.50288 12.6014 11.7262 13.4423C11.7262 13.4423 12.1934 13.489 12.427 13.162L12.8941 12.5547C13.1277 12.2744 13.6883 12.0408 14.2022 12.3679C14.9496 12.7883 15.8372 13.4423 16.3511 14.0963C16.5379 14.2832 16.6781 14.5168 16.6781 14.7503C16.6781 14.9372 16.6314 15.0774 16.5379 15.2642C16.0708 16.1051 15.2766 16.9927 14.4357 16.9927C14.2956 16.9927 14.1555 16.9927 14.0153 16.946ZM17.1452 10.2657C17.192 10.6861 16.5379 10.6861 16.5379 10.2657C16.4912 6.1547 13.8752 3.95908 10.6518 3.91236C10.2314 3.91236 10.2314 3.25835 10.6518 3.25835C12.4737 3.25835 14.062 3.91236 15.2299 5.12696C16.3978 6.29485 17.1452 8.07004 17.1452 10.2657ZM11.2124 5.59412C10.7919 5.5474 10.8387 4.89339 11.2591 4.9401C14.062 5.17368 15.5569 7.18244 15.5102 9.61165C15.5102 10.0788 14.9029 10.0321 14.9029 9.61165C14.9496 7.46274 13.6416 5.78098 11.2124 5.59412ZM13.8752 9.05106C13.9219 9.51822 13.2679 9.51822 13.2679 9.09778C13.2211 7.97661 12.7073 7.41602 11.6795 7.36931C11.2591 7.32259 11.3058 6.66857 11.6795 6.71529C13.0343 6.80872 13.8284 7.60288 13.8752 9.05106Z"/>
    </symbol>

    <symbol id="facebook" viewBox="0 0 11 20">
        <path d="M0.596009 10.652H2.78827V19.6774C2.78827 19.8556 2.93265 20 3.11084 20H6.8279C7.00609 20 7.15047 19.8556 7.15047 19.6774V10.6945H9.67066C9.83453 10.6945 9.97239 10.5715 9.9911 10.4088L10.3739 7.08606C10.3844 6.99465 10.3554 6.9031 10.2943 6.83452C10.233 6.76587 10.1454 6.72658 10.0535 6.72658H7.1506V4.64374C7.1506 4.01587 7.48866 3.69748 8.15548 3.69748C8.25051 3.69748 10.0535 3.69748 10.0535 3.69748C10.2317 3.69748 10.3761 3.55303 10.3761 3.3749V0.324968C10.3761 0.146774 10.2317 0.0023871 10.0535 0.0023871H7.43776C7.4193 0.00148387 7.37834 0 7.31795 0C6.86409 0 5.28652 0.0890967 4.04036 1.23555C2.65963 2.506 2.85156 4.02716 2.89743 4.2909V6.72652H0.596009C0.417821 6.72652 0.273438 6.8709 0.273438 7.0491V10.3294C0.273438 10.5075 0.417821 10.652 0.596009 10.652Z"/>
    </symbol>

    <symbol id="youtube" viewBox="0 0 29 20">
        <path d="M27.6856 1.71686C26.6598 0.497419 24.7659 0 21.1489 0H8.01916C4.31937 0 2.39334 0.529505 1.37138 1.82778C0.375 3.09361 0.375 4.9587 0.375 7.54004V12.4601C0.375 17.4609 1.5572 20 8.01916 20H21.149C24.2856 20 26.0237 19.5611 27.1482 18.4849C28.3013 17.3814 28.7933 15.5795 28.7933 12.4601V7.54004C28.7933 4.8178 28.7162 2.9417 27.6856 1.71686ZM18.6197 10.6793L12.6575 13.7954C12.5242 13.865 12.3784 13.8996 12.2329 13.8996C12.068 13.8996 11.9036 13.8552 11.7579 13.767C11.4836 13.6008 11.3161 13.3035 11.3161 12.9829V6.77072C11.3161 6.45059 11.4832 6.15357 11.7569 5.98728C12.0307 5.82098 12.3713 5.80961 12.6554 5.95721L18.6175 9.0532C18.9209 9.21069 19.1114 9.52385 19.1118 9.86551C19.1122 10.2075 18.9225 10.5211 18.6197 10.6793Z"/>
    </symbol>

    <symbol id="instagram" viewBox="0 0 21 20">
        <path d="M20.8242 10C20.8242 12.7162 20.8125 13.0568 20.7655 14.1213C20.7185 15.1859 20.5463 15.91 20.2997 16.5479C19.7792 17.8904 18.7185 18.955 17.3722 19.4755C16.7381 19.7221 16.0101 19.8943 14.9455 19.9413C13.877 19.9883 13.5405 20 10.8242 20C8.10797 20 7.76746 19.9883 6.70288 19.9413C5.6383 19.8943 4.91423 19.7221 4.27627 19.4755C3.6109 19.225 3.00816 18.8297 2.50719 18.3249C1.99838 17.8239 1.60308 17.225 1.35259 16.5519C1.10601 15.9178 0.9338 15.1859 0.886833 14.1252C0.839867 13.0568 0.828125 12.7202 0.828125 10.0039C0.828125 7.28767 0.839867 6.94716 0.890747 5.87867C0.937714 4.81409 1.10993 4.09002 1.3565 3.45205C1.60699 2.78669 2.00229 2.18004 2.5111 1.68297C3.00816 1.16634 3.6109 0.778865 4.28018 0.524462C4.91423 0.277886 5.64222 0.105675 6.70679 0.0587084C7.77529 0.0117417 8.1158 0 10.832 0C13.5483 0 13.8888 0.0117417 14.9573 0.0626223C16.0219 0.109589 16.7459 0.2818 17.3839 0.528376C18.0493 0.778865 18.652 1.17417 19.153 1.67906C19.6657 2.18004 20.0571 2.78278 20.3076 3.45205C20.5542 4.08611 20.7264 4.81409 20.7733 5.87867C20.8203 6.94716 20.8242 7.28767 20.8242 10Z" fill="#394756"/>
        <path d="M10.8303 4.86523C7.99278 4.86523 5.69141 7.1666 5.69141 10.0042C5.69141 12.8418 7.99669 15.1392 10.8303 15.1392C13.6679 15.1392 15.9693 12.8378 15.9693 10.0003C15.9693 7.16269 13.6679 4.86523 10.8303 4.86523ZM10.8303 13.3349C8.99082 13.3349 7.49571 11.8437 7.49571 10.0003C7.49571 8.15682 8.9869 6.66563 10.8303 6.66563C12.6699 6.66563 14.165 8.15682 14.165 10.0003C14.165 11.8437 12.6738 13.3349 10.8303 13.3349Z" fill="white"/>
        <path d="M17.3719 4.66154C17.3719 5.32298 16.8357 5.85918 16.1742 5.85918C15.5128 5.85918 14.9766 5.32298 14.9766 4.66154C14.9766 4.00009 15.5128 3.46389 16.1742 3.46389C16.8317 3.45997 17.3719 4.00009 17.3719 4.66154Z" fill="white"/>
    </symbol>

    <symbol id="arrow" viewBox="0 0 16 10">
        <path d="M7.37568 9.44444L0.255608 2.32424C0.0907959 2.15956 -7.16832e-08 1.93973 -6.14371e-08 1.70532C-5.11909e-08 1.47092 0.090796 1.25108 0.255608 1.0864L0.779831 0.562047C1.12142 0.220846 1.6766 0.220846 2.01767 0.562047L7.99668 6.54105L13.9823 0.555413C14.1471 0.390731 14.3668 0.299805 14.6011 0.299805C14.8357 0.299805 15.0554 0.390731 15.2203 0.555413L15.7444 1.07977C15.9092 1.24458 16 1.46428 16 1.69869C16 1.93309 15.9092 2.15293 15.7444 2.31761L8.61782 9.44444C8.45248 9.60952 8.23174 9.70018 7.99707 9.69966C7.7615 9.70018 7.54088 9.60952 7.37568 9.44444Z"/>
    </symbol>

    <symbol id="polyhedron" viewBox="0 0 40 40">
        <path d="M8.86233 4.67031L20 1.05146L31.1377 4.67031L38.0211 14.1446V25.8554L31.1377 35.3297L20 38.9485L8.86233 35.3297L1.97887 25.8554V14.1446L8.86233 4.67031Z" stroke="#394756" stroke-width="2"/>
    </symbol>

</svg>   


